<?xml version="1.0" encoding="utf-8"?>
<!-- Generator: Adobe Illustrator 19.0.0, SVG Export Plug-In . SVG Version: 6.00 Build 0)  -->
<svg version="1.1" id="Vrstva_2" xmlns="http://www.w3.org/2000/svg" xmlns:xlink="http://www.w3.org/1999/xlink" x="0px" y="0px"
	 viewBox="125 55 544 431" style="enable-background:new 0 0 960 560;" xml:space="preserve">
<path fill="#fff" id="XMLID_5_" d="M452.1,56H339.8c-43.2,0-79.8,35.5-79.8,78.6v112.3c0,43.2,36.6,79.1,79.8,79.1h54.8h57.5H530v-79.1v-56.2
	v-56.2C530,91.5,495.3,56,452.1,56z"/>
<g id="XMLID_1_" fill="#fff">
	<path id="XMLID_2_" d="M191.4,483H172l-21.1-34l-7.2,5.2V483h-17.1v-80.7h17.1v36.9l6.7-9.5l21.8-27.4h19L163.1,438L191.4,483z"/>
	<path id="XMLID_6_" d="M248,483h-46.5v-80.7H248v14h-29.4v17.7H246v14h-27.3v20.8H248V483z"/>
	<path id="XMLID_8_" d="M311.3,483h-46.5v-80.7h46.5v14H282v17.7h27.3v14H282v20.8h29.4V483z"/>
	<path id="XMLID_10_" d="M383.9,427.5c0,8.7-2.7,15.3-8.1,19.9c-5.4,4.6-13.1,6.9-23.1,6.9h-7.3V483h-17.1v-80.7h25.8
		c9.8,0,17.2,2.1,22.3,6.3C381.3,412.9,383.9,419.1,383.9,427.5z M345.3,440.3h5.6c5.3,0,9.2-1,11.8-3.1s3.9-5.1,3.9-9.1
		c0-4-1.1-7-3.3-8.9c-2.2-1.9-5.6-2.9-10.3-2.9h-7.8V440.3z"/>
	<path id="XMLID_13_" d="M434.8,406.3c-10.1,0-18.1,3.2-23.9,9.7c-5.8,6.5-8.7,15.3-8.7,26.6c0,11.5,2.7,20.5,8.2,26.8
		c5.5,6.4,13.3,9.5,23.5,9.5c6.8,0,13-0.9,18.6-2.6v5c-5.3,1.9-12,2.8-20,2.8c-11.3,0-20.3-3.7-26.8-11c-6.5-7.3-9.8-17.5-9.8-30.7
		c0-8.2,1.6-15.4,4.7-21.7c3.1-6.3,7.6-11.1,13.4-14.5s12.6-5.1,20.3-5.1c7.9,0,14.9,1.5,21.1,4.4l-2.3,5.1
		C447.5,407.7,441.3,406.3,434.8,406.3z"/>
	<path id="XMLID_15_" d="M529.9,402.3v52.2c0,9.3-2.7,16.5-8.1,21.7c-5.4,5.2-12.9,7.8-22.5,7.8c-9.3,0-16.6-2.6-21.9-7.9
		c-5.2-5.2-7.9-12.6-7.9-21.9v-52h5.7v52.2c0,7.8,2.2,13.8,6.5,18.1c4.3,4.3,10.4,6.5,18.3,6.5c7.7,0,13.6-2.1,17.9-6.4
		c4.2-4.2,6.3-10.1,6.3-17.7v-52.7H529.9z"/>
	<path id="XMLID_17_" d="M551.8,402.3H574c10,0,17.3,1.7,22,5.1c4.7,3.4,7,8.5,7,15.3c0,4.7-1.4,8.6-4.3,11.7c-2.9,3.1-7,5.1-12.5,6
		v0.3c6.4,1,11.2,3,14.2,6.1c3,3.1,4.6,7.4,4.6,13c0,7.4-2.5,13.2-7.4,17.2c-4.9,4-11.9,6-21,6h-24.7V402.3z M557.5,438.3h17.8
		c7.6,0,13.1-1.3,16.5-3.8c3.4-2.5,5.2-6.5,5.2-11.8c0-5.4-1.9-9.3-5.8-11.7s-9.7-3.6-17.4-3.6h-16.3V438.3z M557.5,443.2V478h19
		c14.9,0,22.4-6.1,22.4-18.2c0-11.1-7.9-16.6-23.6-16.6H557.5z"/>
	<path id="XMLID_21_" d="M666.8,483h-44.1v-80.7h44.1v5.2h-38.5V438h36.3v5.2h-36.3v34.6h38.5V483z"/>
</g>
</svg>
